<?xml version="1.0" encoding="utf-8"?>
<!-- Generator: Adobe Illustrator 21.0.0, SVG Export Plug-In . SVG Version: 6.00 Build 0)  -->
<svg version="1.1" id="Layer_1" xmlns="http://www.w3.org/2000/svg" xmlns:xlink="http://www.w3.org/1999/xlink" x="0px" y="0px"
	 viewBox="-35.4 -8 31.9 31.9" enable-background="new -35.4 -8 31.9 31.9" xml:space="preserve">
<g>
	<path fill="#FFFFFF" d="M-19.5,22c-7.7,0-14-6.3-14-14c0-7.7,6.3-14,14-14s14,6.3,14,14C-5.5,15.7-11.8,22-19.5,22z"/>
	<path fill="#D22856" d="M-19.5-4c6.6,0,12,5.4,12,12s-5.4,12-12,12s-12-5.4-12-12S-26.1-4-19.5-4 M-19.5-8c-8.8,0-16,7.1-16,16
		c0,8.8,7.1,16,16,16c8.8,0,16-7.1,16-16C-3.5-0.8-10.6-8-19.5-8L-19.5-8z"/>
</g>
<path fill="#D22856" d="M-19.5,16.3c4.7,0,8.5-3.8,8.5-8.5c0-4.7-3.8-8.5-8.5-8.5"/>
</svg>
